<svg width="4184" height="2195" viewBox="0 0 4184 2195" fill="none" xmlns="http://www.w3.org/2000/svg">
<g id="soccer">
<g id="bg">
<path id="bgElement" d="M4183.4 1878.26C4170.36 1670.07 3980.46 1500.34 3744.29 1486.11C3635.43 1479.37 3527.26 1505.98 3438.12 1561.44C3348.98 1616.89 3284.34 1697.78 3255.15 1790.4C3249.42 1790.22 3243.69 1790.02 3237.91 1790.02C3135.7 1790.03 3036.24 1819.2 2954.41 1873.15C2872.58 1927.11 2812.79 2002.94 2783.97 2089.32C2716.24 2063.11 2640.55 2057.42 2568.76 2073.15C2496.97 2088.88 2433.13 2125.14 2387.23 2176.24H3863.02C4044.33 2176.24 4191.13 2043.97 4183.73 1884.41C4183.64 1882.36 4183.53 1880.31 4183.4 1878.26Z" fill="#E6E6E6"/>
<g id="Group 3">
<path id="Vector" d="M4145.07 2171.94H0V2180.54H4145.07V2171.94Z" fill="#3F3D56"/>
</g>
</g>
<g id="righthand">
<path id="Vector_2" d="M1382.96 759.333C1382.96 759.333 1195.18 698.431 1224.01 798.631C1252.84 898.831 1411 848.217 1411 848.217L1382.96 759.333Z" fill="#FFB8B8"/>
<g id="Group 2">
<path id="Vector_3" d="M2102.54 456.324C2102.54 456.324 2006.13 340.272 1912.45 460.748C1818.59 581.461 1731.33 680.56 1731.33 680.56L1498.22 747.505L1363.36 758.045L1400.51 863.652L1792.62 813.549C1792.62 813.549 2229.17 585.141 2102.54 456.324Z" fill="#2F2E41"/>
</g>
</g>
<g id="shoe">
<path id="Vector_4" d="M1813.77 1860.17C1808.89 1842.97 1768.33 1764.98 1766.64 1778.17C1764.95 1791.36 1686.83 1812.87 1657.54 1787.06C1657.54 1787.06 1618.48 1756.96 1603.83 1787.06C1589.19 1817.17 1559.89 1868.77 1559.89 1868.77C1559.89 1868.77 1428.07 1924.67 1447.6 1954.78C1451.55 1960.87 1462.49 1963.43 1477.43 1963.66C1477.08 1964.46 1476.9 1965.3 1476.89 1966.15V1969.2C1476.89 1971.08 1477.74 1972.88 1479.25 1974.21C1480.75 1975.53 1482.8 1976.28 1484.93 1976.28H1488.39C1490.52 1976.28 1492.56 1975.53 1494.07 1974.21C1495.58 1972.88 1496.42 1971.08 1496.42 1969.2V1966.15C1496.42 1965.06 1496.12 1963.98 1495.55 1963C1499.54 1962.69 1503.68 1962.28 1507.94 1961.79C1506.81 1963.03 1506.19 1964.57 1506.19 1966.15V1969.2C1506.19 1971.08 1507.03 1972.88 1508.54 1974.21C1510.05 1975.53 1512.09 1976.28 1514.22 1976.28H1517.68C1519.81 1976.28 1521.86 1975.53 1523.36 1974.21C1524.87 1972.88 1525.72 1971.08 1525.72 1969.2V1966.15C1525.71 1964.89 1525.33 1963.66 1524.6 1962.57C1523.86 1961.49 1522.82 1960.6 1521.56 1959.99C1532.8 1958.34 1544.53 1956.24 1556.19 1953.91C1555.43 1955.01 1555.02 1956.27 1555.01 1957.55V1960.6C1555.01 1962.48 1555.86 1964.28 1557.36 1965.61C1558.87 1966.93 1560.92 1967.68 1563.05 1967.68H1566.51C1568.64 1967.68 1570.68 1966.93 1572.19 1965.61C1573.69 1964.28 1574.54 1962.48 1574.54 1960.6V1957.55C1574.54 1956.19 1574.09 1954.85 1573.24 1953.7C1572.39 1952.55 1571.18 1951.65 1569.76 1951.1C1578.51 1949.22 1587.08 1947.26 1595.24 1945.32C1594.48 1946.41 1594.08 1947.67 1594.07 1948.95V1952C1594.07 1953.88 1594.92 1955.68 1596.42 1957C1597.93 1958.33 1599.97 1959.08 1602.1 1959.08H1605.56C1607.7 1959.08 1609.74 1958.33 1611.25 1957C1612.75 1955.68 1613.6 1953.88 1613.6 1952V1948.95C1613.59 1947.45 1613.04 1945.98 1612.03 1944.77C1611.01 1943.56 1609.58 1942.67 1607.95 1942.23C1636.62 1935.12 1657.54 1928.98 1657.54 1928.98C1657.54 1928.98 1681.83 1921.19 1711.24 1910.67V1913.3C1711.24 1915.17 1712.09 1916.97 1713.6 1918.3C1715.1 1919.63 1717.15 1920.37 1719.28 1920.37H1722.74C1724.87 1920.37 1726.91 1919.63 1728.42 1918.3C1729.93 1916.97 1730.77 1915.17 1730.77 1913.3V1910.25C1730.77 1909.18 1730.49 1908.12 1729.95 1907.16C1729.41 1906.19 1728.63 1905.35 1727.67 1904.7C1733.57 1902.51 1739.53 1900.26 1745.42 1897.98V1900.4C1745.42 1902.27 1746.27 1904.07 1747.77 1905.4C1749.28 1906.73 1751.32 1907.47 1753.46 1907.47H1756.92C1759.05 1907.47 1761.09 1906.73 1762.6 1905.4C1764.1 1904.07 1764.95 1902.27 1764.95 1900.4V1897.35C1764.95 1896.21 1764.64 1895.09 1764.04 1894.08C1763.44 1893.07 1762.57 1892.21 1761.51 1891.56C1767.88 1888.94 1774.02 1886.32 1779.68 1883.76C1779.65 1883.99 1779.6 1884.21 1779.6 1884.45V1887.5C1779.6 1889.37 1780.44 1891.17 1781.95 1892.5C1783.46 1893.83 1785.5 1894.57 1787.63 1894.57H1791.09C1793.22 1894.57 1795.27 1893.83 1796.77 1892.5C1798.28 1891.17 1799.13 1889.37 1799.13 1887.5V1884.45C1799.13 1882.82 1798.49 1881.24 1797.31 1879.97C1796.14 1878.71 1794.51 1877.84 1792.7 1877.51C1806.35 1870.53 1814.96 1864.34 1813.77 1860.17Z" fill="#2F2E41"/>
</g>
<g id="lefthand">
<path id="Vector_5" d="M2226.33 976.454C2226.33 976.454 2079.86 1092.56 2177.5 1114.06C2275.15 1135.57 2314.21 993.655 2314.21 993.655L2226.33 976.454Z" fill="#FFB8B8"/>
<path id="Vector_6" d="M2360.32 356.643C2311.92 270.955 2164.66 317.689 2188.59 411.045C2188.95 412.437 2189.32 413.843 2189.71 415.262C2214.93 503.634 2256.14 587.851 2311.77 664.68L2258.06 875.396L2199.47 982.904L2321.53 1008.71L2472.88 686.182C2472.88 686.182 2431.14 482.032 2360.32 356.643Z" fill="#2F2E41"/>
</g>
<g id="body">
<path id="Vector_7" d="M1876.27 2155.92C1845.02 2155.89 1814.28 2162.89 1786.96 2176.24H1965.36C1938.11 2162.89 1907.45 2155.89 1876.27 2155.92Z" fill="#E6E6E6"/>
<path id="Vector_8" d="M1672.19 1099.01C1672.19 1099.01 1525.72 1189.32 1535.48 1271.03C1545.25 1352.73 1608.72 1576.35 1608.72 1576.35L1740.54 1559.15C1740.54 1559.15 1755.19 1387.13 1706.36 1322.63L1940.71 1206.52L1672.19 1099.01Z" fill="#FFB8B8"/>
<path id="Vector_9" d="M1996.86 1311.88C1996.86 1311.88 1987.09 1470.99 2011.51 1535.5C2035.92 1600 2060.33 1840.82 2060.33 1840.82H2197.03C2197.03 1840.82 2260.5 1630.1 2182.39 1535.5C2182.39 1535.5 2157.98 1410.79 2226.33 1350.58L1996.86 1311.88Z" fill="#FFB8B8"/>
<path id="Vector_10" d="M1965.12 871.096C1965.12 871.096 1647.78 1047.41 1647.78 1103.31L1901.65 1288.23L1989.54 1202.22L1979.77 1331.23L2253.18 1378.53C2253.18 1378.53 2350.83 1051.71 2345.94 1038.81C2341.06 1025.91 2326.41 836.693 2326.41 836.693L1965.12 871.096Z" fill="#2F2E41"/>
<path id="Vector_11" d="M1740.54 1537.65L1598.95 1563.45L1624.11 1654.54C1636.49 1699.37 1637.9 1746.01 1628.25 1791.36C1628.25 1791.36 1774.71 1825.77 1774.71 1808.57C1774.71 1791.36 1740.54 1722.56 1750.3 1675.26C1760.07 1627.95 1740.54 1537.65 1740.54 1537.65Z" fill="#6C63FF"/>
<path id="Vector_12" d="M2206.8 1821.47L2052.13 1812.87C2052.13 1812.87 2061.5 1954.78 2042.75 2002.08C2024 2049.38 2033.38 2066.59 2033.38 2066.59L2169.3 2075.19L2206.8 1821.47Z" fill="#6C63FF"/>
<path id="Vector_13" d="M2208.7 2135.11C2208 2117.39 2186.79 2033.66 2182.01 2046.26C2177.24 2058.85 2095.75 2065.53 2073.21 2034.92C2073.21 2034.92 2042.13 1998.3 2020.68 2025.05C1999.23 2051.8 1958.37 2096.89 1958.37 2096.89C1958.37 2096.89 1816.21 2127.36 1828.18 2160.39C1830.6 2167.07 1840.7 2171.59 1855.26 2174.55C1854.73 2175.27 1854.35 2176.06 1854.14 2176.89L1853.42 2179.88C1852.97 2181.71 1853.37 2183.63 1854.53 2185.2C1855.69 2186.78 1857.52 2187.88 1859.6 2188.27L1862.98 2188.91C1865.07 2189.3 1867.24 2188.95 1869.03 2187.92C1870.82 2186.9 1872.07 2185.3 1872.52 2183.46L1873.24 2180.48C1873.49 2179.41 1873.45 2178.29 1873.13 2177.24C1877.1 2177.67 1881.25 2178.03 1885.53 2178.33C1884.14 2179.33 1883.17 2180.72 1882.79 2182.27L1882.07 2185.26C1881.62 2187.09 1882.02 2189.01 1883.18 2190.58C1884.34 2192.16 1886.17 2193.26 1888.25 2193.65L1891.63 2194.29C1893.72 2194.68 1895.89 2194.33 1897.68 2193.3C1899.47 2192.28 1900.72 2190.68 1901.17 2188.84L1901.89 2185.86C1902.18 2184.63 1902.1 2183.35 1901.64 2182.15C1901.18 2180.96 1900.37 2179.9 1899.28 2179.07C1910.66 2179.52 1922.63 2179.62 1934.59 2179.48C1933.58 2180.41 1932.88 2181.57 1932.57 2182.83L1931.85 2185.81C1931.41 2187.65 1931.81 2189.56 1932.97 2191.14C1934.13 2192.71 1935.95 2193.82 1938.03 2194.21L1941.42 2194.84C1943.5 2195.23 1945.68 2194.88 1947.47 2193.86C1949.25 2192.84 1950.51 2191.23 1950.95 2189.4L1951.67 2186.42C1952 2185.08 1951.87 2183.69 1951.31 2182.41C1950.75 2181.13 1949.79 2180.03 1948.53 2179.22C1957.53 2178.99 1966.38 2178.65 1974.82 2178.25C1973.81 2179.18 1973.12 2180.34 1972.81 2181.59L1972.09 2184.57C1971.64 2186.41 1972.05 2188.32 1973.2 2189.9C1974.36 2191.47 1976.19 2192.58 1978.27 2192.97L1981.65 2193.6C1983.74 2194 1985.91 2193.64 1987.7 2192.62C1989.49 2191.6 1990.74 2189.99 1991.19 2188.16L1991.91 2185.18C1992.26 2183.7 1992.07 2182.17 1991.36 2180.8C1990.65 2179.43 1989.47 2178.3 1987.97 2177.56C2017.7 2175.87 2039.61 2173.71 2039.61 2173.71C2039.61 2173.71 2065.21 2170.56 2096.47 2165.67L2095.85 2168.24C2095.4 2170.07 2095.81 2171.99 2096.97 2173.57C2098.13 2175.14 2099.95 2176.24 2102.03 2176.64L2105.42 2177.27C2107.5 2177.66 2109.67 2177.31 2111.46 2176.29C2113.25 2175.27 2114.5 2173.66 2114.95 2171.83L2115.67 2168.84C2115.92 2167.8 2115.9 2166.71 2115.6 2165.67C2115.3 2164.63 2114.73 2163.66 2113.95 2162.84C2120.24 2161.79 2126.6 2160.69 2132.9 2159.53L2132.33 2161.9C2131.88 2163.73 2132.29 2165.65 2133.44 2167.22C2134.6 2168.8 2136.43 2169.9 2138.51 2170.3L2141.89 2170.93C2143.98 2171.32 2146.15 2170.97 2147.94 2169.95C2149.73 2168.93 2150.98 2167.32 2151.43 2165.48L2152.15 2162.5C2152.42 2161.39 2152.38 2160.24 2152.03 2159.14C2151.68 2158.04 2151.04 2157.04 2150.16 2156.21C2157.01 2154.82 2163.63 2153.39 2169.77 2151.92C2169.69 2152.14 2169.58 2152.35 2169.53 2152.58L2168.81 2155.56C2168.36 2157.39 2168.76 2159.31 2169.92 2160.88C2171.08 2162.46 2172.91 2163.56 2174.99 2163.95L2178.37 2164.59C2180.46 2164.98 2182.63 2164.63 2184.42 2163.61C2186.21 2162.58 2187.46 2160.98 2187.91 2159.14L2188.63 2156.16C2189.01 2154.57 2188.76 2152.9 2187.92 2151.45C2187.07 2150 2185.68 2148.85 2183.98 2148.2C2198.99 2143.88 2208.87 2139.4 2208.7 2135.11Z" fill="#2F2E41"/>
<path id="Vector_14" d="M1965.12 312.054C2043.32 312.054 2106.71 256.22 2106.71 187.345C2106.71 118.47 2043.32 62.6354 1965.12 62.6354C1886.93 62.6354 1823.54 118.47 1823.54 187.345C1823.54 256.22 1886.93 312.054 1965.12 312.054Z" fill="#FFB8B8"/>
<path id="Vector_15" d="M2092.06 174.443C2092.06 174.443 2170.18 260.45 2209.24 256.15L2038.36 372.258C2038.36 372.258 2018.83 299.153 1994.42 290.552C1970.01 281.952 2092.06 174.443 2092.06 174.443Z" fill="#FFB8B8"/>
<path id="Vector_16" d="M2397.21 813.041C2397.21 813.041 2397.2 338.517 2306.82 297.64C2216.5 256.787 2156.75 233.47 2156.75 233.47C2155.42 249.041 2150.4 264.192 2142 277.945C2133.61 291.698 2122.04 303.748 2108.03 313.315C2078.08 333.68 2048.24 350.566 2031.57 350.62L2031.04 348.607L2029 343.494L1979.77 410.961C1979.77 410.961 1935.83 419.562 1921.18 445.364C1913.26 459.323 1950.63 599.845 1928.51 727.035C1909.74 834.946 1830.66 932.358 1828.42 944.201C1824.63 964.221 1920.75 911.769 1964.03 887.247C1964.67 887.877 1965.12 888.297 1965.12 888.297C1965.12 888.297 1940.71 896.898 1989.54 883.997C2017.2 876.687 2055.82 876.282 2084.12 877.302C2084.08 884.773 2084.28 890.709 2084.74 894.748C2089.62 937.751 2333.74 997.955 2367.91 985.054C2402.09 972.153 2397.21 813.041 2397.21 813.041Z" fill="#2F2E41"/>
<path id="Vector_17" d="M2055.45 1277.48C2055.45 1277.48 2123.8 1221.57 2162.86 1251.67C2201.92 1281.78 2226.33 1303.28 2226.33 1303.28C2226.33 1303.28 2114.03 1243.07 2055.45 1277.48Z" fill="#6C63FF"/>
<path id="Vector_18" d="M2073.2 1946.38C2073.2 1946.38 2111.73 1914.87 2133.74 1931.84C2155.76 1948.81 2169.52 1960.93 2169.52 1960.93C2169.52 1960.93 2106.22 1926.99 2073.2 1946.38Z" fill="#2F2E41"/>
<path id="Vector_19" d="M1641.59 1653.3C1641.59 1653.3 1668.04 1613.28 1694.7 1623.87C1721.37 1634.45 1738.54 1642.52 1738.54 1642.52C1738.54 1642.52 1666.78 1626.28 1641.59 1653.3Z" fill="#2F2E41"/>
<path id="Vector_20" opacity="0.2" d="M2289.8 671.13L2197.03 980.753L2275.15 834.542L2289.8 671.13Z" fill="black"/>
<path id="Vector_21" d="M2054.05 41.9769C2054.05 41.9769 1975.78 -30.5975 1897 15.1071C1818.23 60.8117 1780.86 105.209 1788.58 136.122C1796.3 167.036 1819.16 210.034 1819.16 210.034C1819.16 210.034 1804.96 145.991 1870.19 141.252C1935.42 136.513 2025.54 98.4905 2025.54 98.4905L2086.49 213.154C2086.49 213.154 2095.11 186.583 2119 194.204C2142.9 201.825 2124.38 50.4774 2054.05 41.9769Z" fill="#2F2E41"/>
</g>
<g id="SoccerBall">
<g id="Group 1">
<path id="Vector_22" d="M1535.41 1726.72C1535.4 1737.73 1534.38 1748.72 1532.33 1759.58V1759.62C1526.73 1788.84 1513.74 1816.53 1494.35 1840.62C1474.97 1864.72 1449.69 1884.57 1420.42 1898.69C1391.16 1912.81 1358.67 1920.83 1325.42 1922.14C1292.16 1923.45 1259.01 1918.01 1228.46 1906.25H1228.41C1219.37 1902.77 1210.61 1898.75 1202.19 1894.2C1176.1 1880.18 1153.57 1861.48 1136.02 1839.29C1118.47 1817.11 1106.29 1791.92 1100.25 1765.32C1097.42 1752.6 1096 1739.68 1096 1726.72C1096 1720.8 1096.3 1714.94 1096.88 1709.15V1709.11C1101.95 1659.19 1128.34 1612.91 1170.61 1579.82C1212.89 1546.72 1267.82 1529.34 1324.07 1531.25C1380.32 1533.16 1433.6 1554.23 1472.92 1590.1C1512.23 1625.97 1534.59 1673.91 1535.36 1724.02V1724.06C1535.41 1724.98 1535.41 1725.8 1535.41 1726.72Z" fill="#6C63FF"/>
</g>
<path id="Vector_23" d="M1369.79 1664.18H1271.39L1222.19 1589.14L1255.56 1538.19L1257.51 1537.73C1299.76 1527.78 1344.38 1528.88 1385.93 1540.89L1387.7 1541.41L1418.99 1589.14L1369.79 1664.18ZM1277.02 1655.58H1364.15L1407.71 1589.14L1381.11 1548.55C1342.5 1537.77 1301.23 1536.74 1261.99 1545.58L1233.46 1589.14L1277.02 1655.58Z" fill="white"/>
<path id="Vector_24" d="M1364.91 1819H1266.51L1217.3 1743.94L1266.51 1668.88H1364.91L1414.11 1743.94L1364.91 1819ZM1272.14 1810.39H1359.27L1402.83 1743.94L1359.27 1677.48H1272.14L1228.58 1743.94L1272.14 1810.39Z" fill="white"/>
<path id="Vector_25" d="M1315.71 1926.63C1285.02 1926.68 1254.65 1921.14 1226.51 1910.36L1221.5 1908.44L1271.39 1832.28H1369.79L1417.58 1905.19L1412.83 1907.2C1382.54 1920.06 1349.33 1926.7 1315.71 1926.63V1926.63ZM1235.46 1904.34C1262.3 1913.85 1291.05 1918.5 1319.98 1917.99C1348.91 1917.49 1377.43 1911.85 1403.82 1901.41L1364.15 1840.88H1277.03L1235.46 1904.34Z" fill="white"/>
<path id="Vector_26" d="M1530.9 1741.59H1432.5L1383.3 1666.54L1432.5 1591.46H1477.31L1478.75 1592.8C1517.61 1628.81 1539.57 1676.42 1540.24 1726.09V1727.34L1530.9 1741.59ZM1438.14 1732.99H1525.27L1530.46 1725.07C1529.52 1678.59 1509.08 1634.06 1473.1 1600.06H1438.14L1394.58 1666.54L1438.14 1732.99Z" fill="white"/>
<path id="Vector_27" d="M1431.15 1898.6L1383.3 1825.66L1432.5 1750.57H1530.9L1537.22 1760.16L1537.15 1762.09C1531.81 1789.47 1520 1815.57 1502.48 1838.67C1484.96 1861.78 1462.12 1881.38 1435.44 1896.21L1431.15 1898.6ZM1394.58 1825.66L1434.49 1886.5C1458.67 1872.35 1479.35 1854.04 1495.29 1832.67C1511.22 1811.29 1522.09 1787.3 1527.23 1762.14L1525.27 1759.17H1438.14L1394.58 1825.66Z" fill="white"/>
<path id="Vector_28" d="M1203.93 1900.45L1199.67 1898.19C1173.01 1883.99 1149.98 1865.08 1132.04 1842.64C1114.11 1820.21 1101.65 1794.74 1095.46 1767.85L1095.1 1766.25L1105.39 1750.57H1203.79L1252.99 1825.66L1203.93 1900.45ZM1105.41 1767.74C1111.34 1792.43 1122.8 1815.83 1139.13 1836.57C1155.45 1857.3 1176.31 1874.97 1200.49 1888.51L1241.72 1825.66L1198.15 1759.17H1111.03L1105.41 1767.74Z" fill="white"/>
<path id="Vector_29" d="M1203.79 1732.98H1105.39L1092 1712.6V1711.44C1096.82 1662.71 1122.03 1617.29 1162.74 1584.01L1164.14 1582.86H1203.79L1252.99 1657.94L1203.79 1732.98ZM1111.02 1724.38H1198.15L1241.72 1657.94L1198.15 1591.46H1168C1130.33 1622.77 1106.84 1665.06 1101.88 1710.47L1111.02 1724.38Z" fill="white"/>
</g>
</g>
</svg>
